<?xml version="1.0" encoding="UTF-8"?>
<svg id="Layer_1" data-name="Layer 1" xmlns="http://www.w3.org/2000/svg" viewBox="0 0 500 500">
  <defs>
    <style>
      .cls-1 {
        fill: #ccb4cb;
      }

      .cls-2 {
        fill: #164045;
      }
    </style>
  </defs>
  <circle class="cls-2" cx="250" cy="250" r="233.69"/>
  <path class="cls-1" d="m204.65,329.42c.47-20.64.71-48.64.71-83.29,0-15.42-4.98-21.59-18.51-21.59s-24.2,7.59-24.2,28.95c0,45.8.24,61.22.47,75.93h-56.47c.47-21.12.71-40.1.71-73.56,0-31.56-.24-53.86-.71-74.27h56.47c-.24,9.25-.24,16.14-.71,24.44l1.42.48c8.78-18.98,25.39-27.05,49.12-27.05,30.61,0,48.17,13.76,48.17,49.12,0,23.73-.47,35.83-.47,51.25,0,18.51.24,33.93.95,49.59h-56.95Z"/>
  <path class="cls-1" d="m345.42,209.15c13.53-.24,27.05-.47,40.34-.95-.24,14.71-.24,32.03.24,47.22-13.53-.24-27.05-.48-40.58-.71,0,30.37.24,52.44,1.42,75.69-11.15-.47-19.93-.47-29.19-.47s-18.03,0-28.95.47c1.19-27.05,1.66-52.68,1.66-75.22l-14.71.24c.47-14.24.47-31.08,0-45.8h14.24c-.24-6.17-.24-12.34-.24-18.03,0-27.29,14.24-47.46,59.32-47.46,16.85,0,28,1.42,40.34,3.8-1.42,10.92-3.08,29.9-4.03,42.95-5.46-1.9-12.58-3.32-21.36-3.32-13.76,0-18.51,4.03-18.51,14.95v6.64Z"/>
</svg>